<?xml version="1.0" encoding="UTF-8"?><svg id="Camada_1" xmlns="http://www.w3.org/2000/svg" viewBox="0 0 500 317.32"><path d="m298.36,220.73v52.39H1.65V104.45c0-9.61,1.25-18.86,3.74-27.75,2.5-8.88,6.02-17.19,10.59-24.92,4.56-7.73,10.04-14.79,16.43-21.18,6.39-6.39,13.48-11.87,21.27-16.43,7.79-4.56,16.13-8.09,25.01-10.59C87.57,1.1,96.82-.15,106.43-.15c9.01,0,17.77,1.13,26.29,3.38,8.52,2.25,16.61,5.48,24.28,9.67s14.73,9.34,21.18,15.43c6.45,6.09,12.05,12.9,16.8,20.45L298.36-.15v55.68l-87.68,42.72.37,122.49h87.32Zm-244.31,0h104.79v-116.28c0-7.18-1.37-13.93-4.11-20.26-2.74-6.33-6.48-11.87-11.23-16.61-4.75-4.75-10.31-8.49-16.7-11.23s-13.17-4.11-20.35-4.11-13.97,1.37-20.35,4.11c-6.39,2.74-11.96,6.48-16.7,11.23-4.75,4.75-8.49,10.29-11.23,16.61-2.74,6.33-4.11,13.08-4.11,20.26v116.28Z"/><path d="m370.03,273.13h-50.2V-.15h50.2v172.33l74.3-94.2h57.32l-64.81,81.42,64.81,113.73h-57.32l-39.61-71.01-34.68,46v25.01Z"/><g><path d="m9.88,315.91c-2.63,0-4.66-.35-6.09-1.06s-2.14-1.65-2.14-2.84c0-.78.27-1.48.83-2.08s1.35-1.13,2.41-1.57c1.06-.44,2.32-.78,3.79-1.03,1.47-.24,3.14-.36,5.01-.36.47,0,1.02.01,1.65.03s1.28.06,1.94.11c.66.05,1.32.09,1.97.11l.07,2.33c-.56-.06-1.16-.11-1.8-.14-.64-.03-1.28-.05-1.92-.06s-1.21-.02-1.7-.02c-1.35,0-2.56.05-3.63.15-1.07.1-1.97.25-2.71.46-.74.21-1.3.47-1.67.77-.37.31-.56.65-.56,1.03,0,.3.13.55.39.77.26.22.62.4,1.08.53s1,.24,1.62.31c.62.07,1.29.1,2.01.1,1.24,0,2.35-.1,3.34-.3.99-.2,1.84-.49,2.56-.88.72-.39,1.27-.9,1.65-1.53.38-.63.56-1.38.54-2.23-.02-1.25-.31-2.21-.86-2.89-.55-.67-1.33-1.14-2.33-1.4-1-.26-2.23-.39-3.69-.39-1.26,0-2.42.11-3.49.34-1.07.23-2.05.61-2.95,1.16l-2.13-1.87c1.15-.69,2.46-1.22,3.93-1.58,1.47-.36,3.09-.54,4.84-.54,1.48,0,2.84.11,4.06.32,1.23.21,2.29.56,3.2,1.06.91.49,1.61,1.17,2.11,2.04s.74,1.96.74,3.29v7.59h-3.71v-1.93c-.47.43-1.03.78-1.69,1.07s-1.37.51-2.16.66-1.56.27-2.33.34c-.76.07-1.5.11-2.19.11Z"/><path d="m29.57,301.67h3.78l-.1,4.01-.51-.4c.18-.59.54-1.13,1.08-1.61.54-.48,1.19-.89,1.96-1.22.76-.34,1.6-.6,2.51-.8.91-.19,1.82-.29,2.72-.29,1.3,0,2.51.15,3.61.44s2.05.72,2.83,1.27l-1.65,2.45-.17.28-.27-.12c-.02-.16-.09-.31-.2-.43-.11-.12-.32-.28-.61-.46-.63-.29-1.27-.48-1.92-.6-.65-.11-1.36-.17-2.13-.17-.81,0-1.64.08-2.5.24-.86.16-1.64.42-2.36.78-.72.36-1.3.82-1.74,1.39s-.66,1.26-.66,2.08v7.13h-3.68v-13.99Z"/><path d="m60.75,315.47c-.96-.29-1.69-.75-2.19-1.37s-.84-1.42-1.01-2.4-.22-2.14-.15-3.49l.64-9.96,3.81-.33h.34l.03.24c-.13.14-.25.28-.34.42-.09.14-.16.37-.2.69l-.47,3.59.17.51-.37,4.88c-.09,1.33-.02,2.36.22,3.1.24.74.67,1.27,1.32,1.58s1.47.47,2.48.47c1.1,0,2.11-.14,3.03-.43.92-.29,1.83-.63,2.73-1.04l.91,2.39c-1.15.51-2.33.9-3.54,1.18-1.22.28-2.5.41-3.85.41-1.42,0-2.6-.15-3.56-.44Zm-7.91-13.79h16.52v2.54h-16.52v-2.54Z"/><path d="m107.73,315.41c-1.18-.31-2.24-.76-3.19-1.37-.94-.6-1.68-1.35-2.21-2.26-.53-.91-.79-1.96-.79-3.16,0-1.28.28-2.38.84-3.3.56-.92,1.32-1.67,2.28-2.25.96-.58,2.03-1.01,3.24-1.29s2.44-.42,3.73-.42c1.19,0,2.25.1,3.17.29.92.19,1.71.47,2.36.81.65.35,1.15.75,1.48,1.19v-8.36h3.91v.24c-.11.12-.19.25-.24.4-.05.14-.06.39-.03.73v16.91c0,.35.02.69.07,1.04.05.35.17.69.37,1.04h-3.81c-.09-.24-.16-.46-.22-.69-.06-.22-.09-.44-.1-.66s-.02-.44-.02-.67c-.38.45-.92.85-1.62,1.19-.7.35-1.52.61-2.46.8-.94.18-1.96.28-3.04.28-1.3-.02-2.55-.19-3.73-.49Zm7.23-2.48c.81-.21,1.48-.5,2.01-.89.53-.38.93-.86,1.2-1.44s.4-1.24.4-2.01c0-1.03-.27-1.88-.81-2.56-.54-.68-1.31-1.19-2.31-1.54-1-.35-2.21-.52-3.63-.52-.99,0-1.89.09-2.7.28s-1.51.47-2.11.84c-.6.38-1.06.85-1.4,1.41-.34.56-.51,1.22-.51,1.97,0,1.01.3,1.87.89,2.59s1.42,1.26,2.46,1.63c1.04.37,2.25.55,3.62.55,1.1,0,2.06-.1,2.87-.31Z"/><path d="m137.46,298.74c-.63,0-1.17-.2-1.62-.61-.45-.41-.67-.89-.67-1.44,0-.59.22-1.09.66-1.48.44-.4.98-.6,1.64-.6s1.17.21,1.64.63c.46.42.69.9.69,1.45s-.23,1.03-.69,1.44c-.46.41-1.01.61-1.64.61Zm-7.86,16.93v-2.63h6.27v-8.69h-6v-2.66h9.65v11.36h5.77v2.63h-15.68Z"/><path d="m155.03,301.67h3.78l-.1,4.01-.51-.4c.18-.59.54-1.13,1.08-1.61.54-.48,1.19-.89,1.96-1.22.76-.34,1.6-.6,2.51-.8.91-.19,1.82-.29,2.72-.29,1.3,0,2.51.15,3.61.44s2.05.72,2.83,1.27l-1.65,2.45-.17.28-.27-.12c-.02-.16-.09-.31-.2-.43-.11-.12-.32-.28-.61-.46-.63-.29-1.27-.48-1.92-.6-.65-.11-1.36-.17-2.13-.17-.81,0-1.64.08-2.5.24-.86.16-1.64.42-2.36.78-.72.36-1.3.82-1.74,1.39s-.66,1.26-.66,2.08v7.13h-3.68v-13.99Z"/><path d="m188.72,315.91c-1.66,0-3.2-.16-4.62-.48s-2.64-.78-3.68-1.39c-1.03-.61-1.84-1.36-2.43-2.25-.58-.89-.88-1.9-.88-3.04s.29-2.19.86-3.1,1.35-1.68,2.34-2.31c.99-.63,2.15-1.11,3.49-1.45,1.34-.34,2.77-.51,4.3-.51,1.39,0,2.69.15,3.88.45,1.19.3,2.23.75,3.1,1.34.88.59,1.56,1.32,2.06,2.17s.74,1.84.74,2.97c0,.18,0,.38-.02.6-.01.22-.03.41-.05.57h-17.23c.09.68.38,1.27.86,1.77s1.11.9,1.87,1.21c.76.31,1.62.54,2.58.67.96.14,1.94.2,2.95.2.79,0,1.56-.05,2.31-.14.75-.09,1.46-.23,2.12-.41.66-.18,1.23-.44,1.7-.76l2.19,1.68c-.65.49-1.42.9-2.29,1.22-.88.33-1.83.57-2.87.73-1.04.16-2.14.25-3.3.25Zm-7.99-8.82h13.63c-.02-.53-.21-1-.57-1.4-.36-.4-.84-.74-1.45-1.02-.61-.28-1.29-.48-2.06-.62-.76-.14-1.57-.21-2.43-.21s-1.67.06-2.44.19-1.49.32-2.14.57c-.65.26-1.2.59-1.65,1-.45.41-.74.91-.88,1.48Z"/><path d="m209.66,315.38c-1.44-.35-2.68-.85-3.73-1.49s-1.87-1.41-2.46-2.3c-.6-.89-.89-1.86-.89-2.91,0-1.1.3-2.1.89-3,.6-.89,1.42-1.66,2.46-2.3,1.04-.64,2.28-1.14,3.71-1.49,1.43-.35,2.97-.53,4.64-.53,1.93,0,3.66.23,5.18.69,1.52.46,2.75,1.11,3.69,1.94l-1.99,2.05-.24.21-.2-.18c-.02-.16-.08-.3-.18-.41-.1-.11-.3-.27-.59-.47-.81-.45-1.71-.76-2.71-.93-1-.17-2.09-.26-3.25-.26-.94,0-1.87.1-2.77.28s-1.71.48-2.43.88c-.72.4-1.3.87-1.75,1.43-.45.56-.67,1.2-.67,1.94s.22,1.39.67,1.97c.45.58,1.04,1.07,1.79,1.48.74.41,1.61.72,2.6.92.99.21,2.02.31,3.1.31.74,0,1.51-.06,2.29-.18.79-.12,1.53-.32,2.23-.58.7-.27,1.33-.59,1.89-.98l1.89,2.2c-1.15.8-2.44,1.37-3.9,1.71-1.45.35-2.99.52-4.6.52s-3.21-.18-4.65-.53Z"/><path d="m236.39,315.47c-.96-.29-1.69-.75-2.19-1.37s-.84-1.42-1.01-2.4-.22-2.14-.15-3.49l.64-9.96,3.81-.33h.34l.03.24c-.13.14-.25.28-.34.42-.09.14-.16.37-.2.69l-.47,3.59.17.51-.37,4.88c-.09,1.33-.02,2.36.22,3.1.24.74.67,1.27,1.32,1.58s1.47.47,2.48.47c1.1,0,2.11-.14,3.03-.43.92-.29,1.83-.63,2.73-1.04l.91,2.39c-1.15.51-2.33.9-3.54,1.18-1.22.28-2.5.41-3.85.41-1.42,0-2.6-.15-3.56-.44Zm-7.91-13.79h16.52v2.54h-16.52v-2.54Z"/><path d="m262.85,315.91c-2.16.02-4.05-.28-5.67-.89-1.62-.61-2.88-1.47-3.79-2.56-.91-1.1-1.37-2.36-1.37-3.79s.46-2.69,1.37-3.79c.91-1.1,2.18-1.96,3.79-2.58s3.51-.94,5.67-.94,4,.31,5.6.94c1.59.62,2.83,1.48,3.71,2.58.88,1.1,1.32,2.36,1.32,3.79s-.44,2.65-1.32,3.74c-.88,1.09-2.11,1.94-3.71,2.57-1.6.62-3.46.94-5.6.94Zm0-2.66c1.33,0,2.51-.18,3.56-.55,1.04-.37,1.85-.9,2.43-1.58.57-.69.86-1.51.86-2.47s-.29-1.78-.86-2.48c-.57-.7-1.38-1.23-2.43-1.6-1.04-.37-2.23-.55-3.56-.55s-2.56.19-3.63.55c-1.07.37-1.9.9-2.51,1.6-.61.7-.91,1.53-.91,2.48s.31,1.78.93,2.47,1.46,1.22,2.51,1.58c1.06.37,2.26.55,3.61.55Z"/><path d="m280.48,301.67h3.78l-.1,4.01-.51-.4c.18-.59.54-1.13,1.08-1.61.54-.48,1.19-.89,1.96-1.22.76-.34,1.6-.6,2.51-.8.91-.19,1.82-.29,2.72-.29,1.3,0,2.51.15,3.61.44s2.05.72,2.83,1.27l-1.65,2.45-.17.28-.27-.12c-.02-.16-.09-.31-.2-.43-.11-.12-.32-.28-.61-.46-.63-.29-1.27-.48-1.92-.6-.65-.11-1.36-.17-2.13-.17-.81,0-1.64.08-2.5.24-.86.16-1.64.42-2.36.78-.72.36-1.3.82-1.74,1.39s-.66,1.26-.66,2.08v7.13h-3.68v-13.99Z"/></g><path d="m478.14,317.17h-159.82v-17.31h159.82v17.31Zm-156.81-3.02h153.79v-11.28h-153.79v11.28Z"/><path d="m501.65,317.17h-17.31v-17.31h17.31v17.31Zm-14.29-3.02h11.28v-11.28h-11.28v11.28Z"/></svg>